<?xml version="1.0" encoding="UTF-8" standalone="no"?>
<svg
   xmlns:dc="http://purl.org/dc/elements/1.1/"
   xmlns:cc="http://creativecommons.org/ns#"
   xmlns:rdf="http://www.w3.org/1999/02/22-rdf-syntax-ns#"
   xmlns:svg="http://www.w3.org/2000/svg"
   xmlns="http://www.w3.org/2000/svg"
   xmlns:sodipodi="http://sodipodi.sourceforge.net/DTD/sodipodi-0.dtd"
   xmlns:inkscape="http://www.inkscape.org/namespaces/inkscape"
   width="24"
   height="24"
   viewBox="0 0 24 24"
   version="1.1"
   id="svg32"
   sodipodi:docname="cog-window.svg"
   inkscape:version="1.0.2-2 (e86c870879, 2021-01-15)"
   inkscape:export-filename="C:\Users\leonp\Desktop\WEBSITES\Curtsy-2.0\client\public\cog-window.png"
   inkscape:export-xdpi="776.94702"
   inkscape:export-ydpi="776.94702">
  <metadata
     id="metadata38">
    <rdf:RDF>
      <cc:Work
         rdf:about="">
        <dc:format>image/svg+xml</dc:format>
        <dc:type
           rdf:resource="http://purl.org/dc/dcmitype/StillImage" />
      </cc:Work>
    </rdf:RDF>
  </metadata>
  <defs
     id="defs36" />
  <sodipodi:namedview
     pagecolor="#ffffff"
     bordercolor="#666666"
     borderopacity="1"
     objecttolerance="10"
     gridtolerance="10"
     guidetolerance="10"
     inkscape:pageopacity="0"
     inkscape:pageshadow="2"
     inkscape:window-width="1920"
     inkscape:window-height="1017"
     id="namedview34"
     showgrid="false"
     inkscape:zoom="17.708333"
     inkscape:cx="10.826151"
     inkscape:cy="10.704657"
     inkscape:window-x="-8"
     inkscape:window-y="-8"
     inkscape:window-maximized="1"
     inkscape:current-layer="Duotone"
     inkscape:document-rotation="0" />
  <title
     id="title2">cog-window</title>
  <g
     id="Duotone">
    <rect
       x="1.110223e-16"
       y="2.4424907e-15"
       width="24"
       height="24"
       fill="#ffffff"
       id="rect4"
       style="stroke-width:1.14415" />
    <g
       id="g26"
       transform="matrix(2.0472846,0,0,2.0917737,-10.115733,-18.827879)">
      <polygon
         points="8.74,11.478 7.262,11.125 6.5,12.417 7.5,13.513 7.5,15.487 6.5,16.583 7.262,17.875 8.74,17.522 10.418,18.421 10.75,19.5 12.25,19.5 12.582,18.421 14.26,17.522 15.738,17.875 16.5,16.583 15.5,15.487 15.5,13.513 16.5,12.417 15.738,11.125 14.26,11.478 12.582,10.579 12.25,9.5 10.75,9.5 10.418,10.579 "
         fill="none"
         stroke="#1078ff"
         stroke-linecap="round"
         stroke-linejoin="round"
         id="polygon22"
         transform="translate(-0.70133063,0.28494415)" />
      <polygon
         points="13.5,13.382 13.5,15.618 11.5,16.75 9.5,15.618 9.5,13.382 11.5,12.25 "
         fill="none"
         stroke="#1078ff"
         stroke-linecap="round"
         stroke-linejoin="round"
         id="polygon24"
         transform="translate(-0.66199595,0.32395811)" />
    </g>
  </g>
  <g
     id="Frames-24px">
    <rect
       width="24"
       height="24"
       fill="none"
       id="rect29" />
  </g>
</svg>
