<?xml version="1.0" encoding="UTF-8" standalone="no"?>
<svg
   xmlns:dc="http://purl.org/dc/elements/1.1/"
   xmlns:cc="http://creativecommons.org/ns#"
   xmlns:rdf="http://www.w3.org/1999/02/22-rdf-syntax-ns#"
   xmlns:svg="http://www.w3.org/2000/svg"
   xmlns="http://www.w3.org/2000/svg"
   xmlns:sodipodi="http://sodipodi.sourceforge.net/DTD/sodipodi-0.dtd"
   xmlns:inkscape="http://www.inkscape.org/namespaces/inkscape"
   width="225"
   height="50"
   viewBox="0 0 225 50"
   fill="none"
   version="1.1"
   id="svg8"
   sodipodi:docname="logo.svg"
   inkscape:version="1.0.2-2 (e86c870879, 2021-01-15)">
  <metadata
     id="metadata14">
    <rdf:RDF>
      <cc:Work
         rdf:about="">
        <dc:format>image/svg+xml</dc:format>
        <dc:type
           rdf:resource="http://purl.org/dc/dcmitype/StillImage" />
        <dc:title></dc:title>
      </cc:Work>
    </rdf:RDF>
  </metadata>
  <defs
     id="defs12" />
  <sodipodi:namedview
     pagecolor="#ffffff"
     bordercolor="#666666"
     borderopacity="1"
     objecttolerance="10"
     gridtolerance="10"
     guidetolerance="10"
     inkscape:pageopacity="0"
     inkscape:pageshadow="2"
     inkscape:window-width="1920"
     inkscape:window-height="1017"
     id="namedview10"
     showgrid="false"
     inkscape:zoom="4.9275114"
     inkscape:cx="125.76391"
     inkscape:cy="12.710444"
     inkscape:window-x="-8"
     inkscape:window-y="-8"
     inkscape:window-maximized="1"
     inkscape:current-layer="layer1"
     inkscape:document-rotation="0" />
  <g
     id="Duotone"
     transform="matrix(1.6090823,0,0,1.6090823,1.8623771,6.0422048)" />
  <g
     inkscape:groupmode="layer"
     id="layer2"
     inkscape:label="arrows">
    <polygon
       points="3,6.5 6.5,6.5 6.5,3 0.5,0.5 "
       fill="#ffffff"
       id="polygon4"
       transform="matrix(1.6090823,0,0,1.6090823,2.7595064,5.7889694)" />
    <polygon
       points="16,16 14.5,19 19,23.49 20.5,20.5 23.49,19 19,14.5 "
       fill="#ffffff"
       id="polygon6"
       transform="matrix(1.6090823,0,0,1.6090823,2.7595064,5.7889694)" />
    <polygon
       points="20.99,6.5 17.49,6.5 17.49,3 23.49,0.5 "
       fill="#ffffff"
       id="polygon8"
       transform="matrix(1.6090823,0,0,1.6090823,2.7595064,5.7889694)" />
    <polygon
       points="7.99,16 9.49,19 4.99,23.49 3.49,20.5 0.5,19 4.99,14.5 "
       fill="#ffffff"
       id="polygon10"
       transform="matrix(1.6090823,0,0,1.6090823,2.7595064,5.7889694)" />
    <g
       id="g20"
       transform="matrix(1.6090823,0,0,1.6090823,2.7595064,5.7889694)">
      <polygon
         points="6.5,3 0.5,0.5 6.5,6.5 "
         fill="#cce7ff"
         id="polygon12" />
      <polygon
         points="16,16 20.5,20.5 23.49,19 19,14.5 "
         fill="#cce7ff"
         id="polygon14" />
      <polygon
         points="20.99,6.5 17.49,6.5 23.49,0.5 "
         fill="#cce7ff"
         id="polygon16" />
      <polygon
         points="3.49,20.5 7.99,16 9.49,19 4.99,23.49 "
         fill="#cce7ff"
         id="polygon18" />
    </g>
    <polygon
       points="3,6.5 6.5,6.5 6.5,3 0.5,0.5 "
       fill="none"
       stroke="#1078ff"
       stroke-linecap="round"
       stroke-linejoin="round"
       id="polygon22"
       transform="matrix(1.6090823,0,0,1.6090823,2.7595064,5.7889694)" />
    <line
       x1="13.218534"
       y1="16.248005"
       x2="35.745693"
       y2="38.775158"
       fill="none"
       stroke="#1078ff"
       stroke-linecap="round"
       stroke-linejoin="round"
       id="line24"
       style="stroke-width:1.60908" />
    <line
       x1="28.213573"
       y1="38.479084"
       x2="29.48637"
       y2="35.930298"
       fill="none"
       stroke="#1078ff"
       stroke-linecap="round"
       stroke-linejoin="round"
       id="line26"
       style="stroke-width:1.60908" />
    <line
       x1="30.490429"
       y1="40.75111"
       x2="31.761608"
       y2="38.20554"
       fill="none"
       stroke="#1078ff"
       stroke-linecap="round"
       stroke-linejoin="round"
       id="line28"
       style="stroke-width:1.60908" />
    <polygon
       points="16,16 14.5,19 19,23.49 20.5,20.5 23.49,19 19,14.5 "
       fill="none"
       stroke="#1078ff"
       stroke-linecap="round"
       stroke-linejoin="round"
       id="polygon30"
       transform="matrix(1.6090823,0,0,1.6090823,2.7595064,5.7889694)" />
    <line
       x1="35.449627"
       y1="31.243044"
       x2="32.900829"
       y2="32.515827"
       fill="none"
       stroke="#1078ff"
       stroke-linecap="round"
       stroke-linejoin="round"
       id="line32"
       style="stroke-width:1.60908" />
    <line
       x1="37.721645"
       y1="33.519894"
       x2="35.176083"
       y2="34.791069"
       fill="none"
       stroke="#1078ff"
       stroke-linecap="round"
       stroke-linejoin="round"
       id="line34"
       style="stroke-width:1.60908" />
    <polygon
       points="20.99,6.5 17.49,6.5 17.49,3 23.49,0.5 "
       fill="none"
       stroke="#1078ff"
       stroke-linecap="round"
       stroke-linejoin="round"
       id="polygon36"
       transform="matrix(1.6090823,0,0,1.6090823,2.7595064,5.7889694)" />
    <line
       x1="30.902355"
       y1="16.248005"
       x2="8.3752031"
       y2="38.775158"
       fill="none"
       stroke="#1078ff"
       stroke-linecap="round"
       stroke-linejoin="round"
       id="line38"
       style="stroke-width:1.60908" />
    <line
       x1="15.907315"
       y1="38.479084"
       x2="14.634534"
       y2="35.930298"
       fill="none"
       stroke="#1078ff"
       stroke-linecap="round"
       stroke-linejoin="round"
       id="line40"
       style="stroke-width:1.60908" />
    <line
       x1="13.630467"
       y1="40.75111"
       x2="12.359288"
       y2="38.20554"
       fill="none"
       stroke="#1078ff"
       stroke-linecap="round"
       stroke-linejoin="round"
       id="line42"
       style="stroke-width:1.60908" />
    <polygon
       points="7.99,16 9.49,19 4.99,23.49 3.49,20.5 0.5,19 4.99,14.5 "
       fill="none"
       stroke="#1078ff"
       stroke-linecap="round"
       stroke-linejoin="round"
       id="polygon44"
       transform="matrix(1.6090823,0,0,1.6090823,2.7595064,5.7889694)" />
    <line
       x1="8.671277"
       y1="31.243044"
       x2="11.220059"
       y2="32.515827"
       fill="none"
       stroke="#1078ff"
       stroke-linecap="round"
       stroke-linejoin="round"
       id="line46"
       style="stroke-width:1.60908" />
    <line
       x1="6.3992434"
       y1="33.519894"
       x2="8.9448137"
       y2="34.791069"
       fill="none"
       stroke="#1078ff"
       stroke-linecap="round"
       stroke-linejoin="round"
       id="line48"
       style="stroke-width:1.60908" />
  </g>
  <g
     inkscape:groupmode="layer"
     id="layer1"
     inkscape:label="name">
    <text
       xml:space="preserve"
       style="font-style:normal;font-weight:normal;font-size:40px;line-height:1.25;font-family:sans-serif;fill:#000000;fill-opacity:1;stroke:none"
       x="58.713741"
       y="37.579544"
       id="text934"><tspan
         sodipodi:role="line"
         id="tspan932"
         x="58.713741"
         y="37.579544"
         style="font-style:normal;font-variant:normal;font-weight:normal;font-stretch:normal;font-family:'Libre Baskerville';-inkscape-font-specification:'Libre Baskerville'"
         dx="0"
         dy="0"
         rotate="0 0 0 0 0 0 0 0">Acolyte</tspan></text>
  </g>
</svg>
